<?xml version="1.0" encoding="UTF-8" standalone="no"?>
<!-- Created with Inkscape (http://www.inkscape.org/) -->

<svg
   width="40"
   height="40"
   viewBox="0 0 10.583333 10.583333"
   version="1.1"
   id="svg1"
   xml:space="preserve"
   xmlns:xlink="http://www.w3.org/1999/xlink"
   xmlns="http://www.w3.org/2000/svg"
   xmlns:svg="http://www.w3.org/2000/svg"><defs
     id="defs1" /><g
     id="layer1"><g
       id="g13"
       style="fill:#666666"><path
         d="M 3.103808,7.8940177 Q 2.6304772,7.8862582 2.2812988,7.7543464 1.93988,7.6224345 1.7536515,7.3430918 1.567423,7.0715086 1.567423,6.6602541 V 5.5196046 q 0,-0.2638237 -0.1086333,-0.4190141 Q 1.3501564,4.9376406 1.1406494,4.8678049 0.93114235,4.7902097 0.62076155,4.7902097 V 4.2237648 Q 0.93114235,4.2160052 1.1406494,4.1461696 1.3501564,4.0763339 1.4587897,3.9211435 1.567423,3.7581936 1.567423,3.5021294 v -1.148409 q 0,-0.4112545 0.193988,-0.6828377 Q 1.955399,1.3992995 2.3045774,1.2673876 2.6537558,1.1277163 3.103808,1.1277163 V 1.6864017 Q 2.8399843,1.6941612 2.6459963,1.7717564 2.4520083,1.8493516 2.343375,2.004542 2.2425012,2.1597324 2.2425012,2.4157966 v 1.1173709 q 0,0.3957355 -0.209507,0.6362806 -0.209507,0.2327856 -0.6362806,0.3103808 v 0.046557 q 0.4345331,0.077595 0.6362806,0.3181404 0.209507,0.2327856 0.209507,0.6285211 v 1.1406494 q 0,0.2483047 0.1008738,0.4034951 0.1008738,0.1629499 0.2948618,0.2327856 0.193988,0.077595 0.4655712,0.085355 z"
         id="text1"
         style="font-size:7.75952px;line-height:0.5;stroke-width:0.290981"
         transform="scale(0.8524476,1.1730926)"
         aria-label="{" /><use
         x="0"
         y="0"
         xlink:href="#text1"
         id="use1"
         transform="matrix(-1,0,0,1,10.583334,1.0202373e-6)" /></g><path
       d="M 2.6860917,3.5465851 C 2.7543126,3.401874 2.8990234,3.3098792 3.0592392,3.3098792 h 4.4653667 c 0.1602157,0 0.3049267,0.091995 0.3731478,0.2367059 0.06822,0.1447109 0.047547,0.315263 -0.05375,0.4393011 L 5.953458,6.2960932 v 1.3137684 c 0,0.125072 -0.070288,0.2398073 -0.1829559,0.2956243 -0.1126677,0.055817 -0.2460086,0.044449 -0.3462726,-0.031009 L 4.7626941,7.3783248 C 4.6789683,7.3163055 4.6303867,7.2181084 4.6303867,7.11371 V 6.2960932 L 2.7388078,3.9848524 C 2.6385439,3.8618481 2.6168371,3.6902623 2.6860917,3.5465851 Z"
       id="path1"
       style="fill:#b8b8b8;fill-opacity:1;fill-rule:nonzero;stroke:#1d1d1d;stroke-width:0.51;stroke-dasharray:none;stroke-opacity:1" /></g></svg>
